<?xml version="1.0" encoding="UTF-8" standalone="no"?>
<!-- Created with Inkscape (http://www.inkscape.org/) -->

<svg
   xmlns:dc="http://purl.org/dc/elements/1.1/"
   xmlns:cc="http://creativecommons.org/ns#"
   xmlns:rdf="http://www.w3.org/1999/02/22-rdf-syntax-ns#"
   xmlns:svg="http://www.w3.org/2000/svg"
   xmlns="http://www.w3.org/2000/svg"
   xmlns:xlink="http://www.w3.org/1999/xlink"
   xmlns:sodipodi="http://sodipodi.sourceforge.net/DTD/sodipodi-0.dtd"
   xmlns:inkscape="http://www.inkscape.org/namespaces/inkscape"
   width="112.88889mm"
   height="77.645378mm"
   viewBox="0 0 399.99999 275.1214"
   id="svg2"
   version="1.1"
   inkscape:version="0.91 r13725"
   sodipodi:docname="Cloud9_logo.svg">
  <defs
     id="defs4">
    <linearGradient
       id="0">
      <stop
         id="stop3450"
         stop-color="#00aaec" />
      <stop
         id="stop3452"
         offset="1"
         stop-color="#0076d0" />
    </linearGradient>
    <linearGradient
       gradientUnits="userSpaceOnUse"
       x2="641.65002"
       x1="255.67"
       id="1"
       xlink:href="#0" />
    <linearGradient
       gradientUnits="userSpaceOnUse"
       x2="861.70001"
       x1="725.20001"
       id="2"
       xlink:href="#0" />
  </defs>
  <sodipodi:namedview
     id="base"
     pagecolor="#ffffff"
     bordercolor="#666666"
     borderopacity="1.0"
     inkscape:pageopacity="0.0"
     inkscape:pageshadow="2"
     inkscape:zoom="0.35"
     inkscape:cx="548.15394"
     inkscape:cy="346.8851"
     inkscape:document-units="px"
     inkscape:current-layer="layer1"
     showgrid="false"
     fit-margin-top="0"
     fit-margin-left="0"
     fit-margin-right="0"
     fit-margin-bottom="0"
     inkscape:window-width="1366"
     inkscape:window-height="705"
     inkscape:window-x="-8"
     inkscape:window-y="-8"
     inkscape:window-maximized="1" />
  <metadata
     id="metadata7">
    <rdf:RDF>
      <cc:Work
         rdf:about="">
        <dc:format>image/svg+xml</dc:format>
        <dc:type
           rdf:resource="http://purl.org/dc/dcmitype/StillImage" />
        <dc:title></dc:title>
      </cc:Work>
    </rdf:RDF>
  </metadata>
  <g
     inkscape:label="Layer 1"
     inkscape:groupmode="layer"
     id="layer1"
     transform="translate(173.15394,-604.12592)">
    <g
       id="g3456"
       transform="matrix(0.49970371,0,0,0.49970371,-203.7468,569.0494)">
      <path
         id="path3458"
         d="m 403,85.98 c 28.54,-21.94 72.94,-21.07 99.99,2.99 18.4,16.12 26.38,42.03 23.21,65.94 -2.48,14.39 -9.01,27.66 -15.65,40.53 -11.37,20.8 -22.72,41.63 -34.17,62.39 21.58,11.99 43.12,24.04 64.68,36.05 5.31,3.08 11.01,5.53 16.94,7.16 10.21,2.89 22.06,0.19 29.47,-7.57 11.05,-11.08 11.2,-31.03 0.29,-42.25 -10.06,-10.88 -27.71,-11.45 -40.19,-4.7 -9.72,5.68 -13.16,17.5 -13.71,28.08 -13.56,-7.45 -27.24,-14.65 -40.85,-22.01 4.77,-21.05 19.6,-39.25 39.04,-48.52 30.31,-14.66 70.61,-7.87 92.48,18.41 23.31,28.33 22.87,73.94 -1.67,101.4 -13.63,15.55 -34.39,23.76 -54.86,23.84 -16.99,0.72 -32.75,-6.86 -47.66,-14.07 -56.15,-30.28 -111.8,-61.47 -167.76,-92.11 -8.45,-4.13 -18.02,-7.79 -27.55,-5.65 -9.84,1.67 -18.27,9.1 -21.62,18.44 -3.84,10.93 -1.63,24.22 6.83,32.44 10,10.05 26.66,10.64 38.81,4.43 10.24,-5.39 13.83,-17.56 14.47,-28.34 13.61,7.32 27.31,14.49 40.8,22.02 -6.87,31.96 -37.81,56.01 -70.31,55.91 -19.75,0.84 -40.02,-5.63 -54.68,-19.09 -33.15,-29.87 -31.28,-89.86 4.48,-116.96 20.95,-15.9 50.6,-19.82 74.8,-9.31 27.13,11.04 51.59,27.52 77.94,40.2 12.67,-22.68 25.39,-45.33 38.03,-68.03 4.73,-9.31 8.65,-20.15 5.45,-30.6 -3.52,-13.78 -18.25,-22.73 -32.13,-20.88 -12.84,0.84 -24.4,11.14 -26.26,23.96 -1.31,9.75 0.05,20.77 7.02,28.24 6.4,6.71 15.93,8.86 24.85,9.52 -7.42,13.58 -14.45,27.39 -22.16,40.8 -28.85,-6.5 -51.71,-32.25 -55.2,-61.53 -3.73,-26.17 5.57,-54.69 26.85,-71.13"
         inkscape:connector-curvature="0"
         style="fill:url(#1)" />
      <path
         id="path3460"
         d="m 738.61,449.54 c 23.81,-32.41 77.23,-34.59 104.81,-5.96 17.61,18.21 23.15,47.07 13.74,70.55 -5.6,15.24 -14.11,29.15 -21.74,43.42 -11.56,21.06 -23.02,42.18 -34.64,63.21 -15.8,-0.05 -31.6,0.02 -47.4,0 20.21,-36.25 40.52,-72.45 60.76,-108.69 2.46,-4.5 4.37,-9.32 5.6,-14.31 2.4,-9.39 -0.68,-20.15 -8.17,-26.43 -8.83,-7.82 -22.8,-8.65 -32.76,-2.53 -13.81,8.08 -15.86,28.12 -7.52,40.79 5.44,7.77 15.3,10.39 24.3,10.95 -6.56,12.29 -13.14,24.57 -19.82,36.8 -22.61,-5.07 -41.36,-23.15 -47.76,-45.33 -5.9,-20.95 -2.58,-44.87 10.6,-62.47"
         inkscape:connector-curvature="0"
         style="fill:url(#2)" />
      <path
         id="path3462"
         d="m 453.01,527.12 c -3.838,0.037 -7.674,0.311 -11.475,0.822 -34.21,3.638 -64.61,30.575 -72,64.21 -4.238,18.575 -3.349,38.724 4.701,56.17 9.675,21.7 29.11,38.475 51.637,45.775 37.3,12.725 82.65,-2.037 103.18,-36.22 22.17,-34.875 14.361,-85.45 -18.389,-111.07 -16.09,-13.205 -36.923,-19.887 -57.65,-19.686 m -289.96,0.014 c -25.862,0.157 -51.709,11.06 -67.912,31.695 -26.712,32.06 -24.425,83.88 5.25,113.28 27.09,28.975 74.7,34.814 108.36,14.14 19.19,-11.475 33.11,-31.01 38.28,-52.713 -14.775,-0.212 -29.551,-0.025 -44.33,-0.088 -3.863,7.925 -9.07,15.437 -16.424,20.512 -13.488,9.8 -33.05,9.7 -46.676,0.213 -22.338,-15.388 -27.29,-49.36 -11.787,-71.25 10.587,-16.15 33.05,-23.19 50.787,-15.262 11.262,4.725 19.5,14.711 24.12,25.799 14.787,-0.075 29.562,0.063 44.35,-0.074 -4.063,-22.925 -19.587,-43.07 -39.537,-54.699 -13.448,-7.866 -28.971,-11.641 -44.488,-11.547 m 600.38,0.041 c -9.273,-0.014 -18.544,0 -27.813,0.143 0.025,57.04 0.013,114.08 0,171.12 21.875,-0.013 43.762,0.013 65.64,-0.012 22.987,-0.65 47.31,-7.701 62.963,-25.451 16.362,-18.35 20.712,-44.21 19.387,-68.05 -1.2,-25.65 -13.812,-51.2 -35.662,-65.33 -16.737,-10.75 -37.27,-12.637 -56.688,-12.412 -9.275,0.038 -18.551,-0.004 -27.824,-0.018 M 265,527.19 c 0.012,57.09 -0.013,114.17 0.012,171.26 31.663,-0.025 63.31,-0.025 94.98,0 0.025,-12.925 0,-25.837 0.012,-38.762 -16.975,-0.013 -33.962,0 -50.938,0 -0.012,-44.16 0.026,-88.33 -0.012,-132.49 -14.688,-0.038 -29.363,-0.012 -44.05,-0.012 m 336.25,0 c -14.688,0 -29.363,-0.026 -44.05,0.012 0.2,37.19 -0.487,74.4 0.375,111.58 0,19 9.426,37.675 25.08,48.53 12.788,8.425 28.462,11.424 43.6,11.137 29.16,-0.013 58.33,-0.013 87.49,0.012 0.025,-57.09 0,-114.17 0.012,-171.26 l -38.75,0 0,132.81 c -17.09,-0.013 -34.19,0.026 -51.28,-0.012 -5.862,-0.013 -12.175,-1.663 -16.06,-6.338 -5.375,-6.575 -6.15,-15.488 -6.412,-23.65 l 0,-102.81 m -145.66,36.99 c 13.486,0.353 26.445,7.563 34.1,18.66 15.563,21.3 11.312,54.687 -10.363,70.26 -15.788,11.888 -39.799,10.126 -54.11,-3.324 -18.837,-17.413 -20.839,-49.49 -4.889,-69.43 7.712,-9.925 20.02,-15.913 32.563,-16.15 0.902,-0.038 1.804,-0.045 2.703,-0.021 m 339.09,1.635 c 11.39,0.034 22.761,1.22 31.467,9.35 15.275,14.712 16.12,38.862 10.912,58.19 -2.837,9.962 -9.837,18.925 -19.537,22.938 -12.04,5.2 -25.414,3.375 -38.14,3.713 -0.013,-31.35 -0.013,-62.7 0,-94.06 4.938,0.082 10.119,-0.14 15.297,-0.125"
         transform="scale(0.8,0.8)"
         inkscape:connector-curvature="0" />
    </g>
  </g>
</svg>
