<?xml version="1.0" encoding="utf-8"?>
<!-- Generator: Adobe Illustrator 19.1.0, SVG Export Plug-In . SVG Version: 6.00 Build 0)  -->
<svg version="1.1" id="Layer_1" xmlns="http://www.w3.org/2000/svg" xmlns:xlink="http://www.w3.org/1999/xlink" x="0px" y="0px"
	 viewBox="0 0 512 512"  xml:space="preserve">
<path fill="#d2f9dd" d="m272 191c2 26 23 46 48 46 47 0 93 0 139 0 24 0 45-18 49-41 2-12 1-24 1-36 0-32-21-53-53-53-42 0-84 0-126 0l-7 0 0-36 182 0c-1-3-1-5-1-7-6-23-26-39-49-39-45 0-89 0-134 0-24 0-44 16-49 39-2 13 0 25-1 38-2 24 20 52 52 51 42 0 85 0 127 0l6 0 0 38-184 0z m-222 46c44 0 88 0 131 0 20 0 34-10 44-26 4-6 7-13 6-22l-174 0 0-117 174 0c0-3 0-6-1-9-6-22-26-38-49-38-44 0-88 0-131 0-28 0-50 23-50 51 0 37 0 74 0 111 0 28 22 50 50 50z m32 127c5 22 21 35 43 35 21 0 42 0 63 0 2 0 4 0 6 0l0 45-148 0 0-129 193 0c-3-22-24-40-48-40-47-1-94-1-142 0-27 0-49 21-49 49 0 38 0 76 0 114 1 27 21 48 48 49 48 0 96 0 144 0 28-1 48-22 48-49 0-21 0-41 0-62 0-4 0-8 0-13l-158 0z m381-89c-22 0-44 0-66 0-22 0-44 0-65 0-29 0-50 19-50 48-1 39-1 77 0 116 0 29 22 48 50 48 43 0 87 0 130 0 29 0 50-21 50-50 0-38 0-75 0-112 0-29-21-50-49-50z m3 172l-139 0 0-132 139 0z"></path>
</svg>

