<?xml version="1.0" encoding="utf-8"?>
<!-- Generator: Adobe Illustrator 19.1.0, SVG Export Plug-In . SVG Version: 6.00 Build 0)  -->
<svg version="1.1" id="Layer_1" xmlns="http://www.w3.org/2000/svg" xmlns:xlink="http://www.w3.org/1999/xlink" x="0px" y="0px"
	 viewBox="16 -18 444.8 448" enable-background="new 16 -18 444.8 448" xml:space="preserve">
<g>
	<path fill="#222222" d="M100.9,249.6c4.4,2.7,7.2,5.4,11.4,8.8l34.2,31.7c7.1,6.8,25.4,25.2,32.4,33.4c4.8,5.6,6.9,6.2,10.4,11.7
		c-1.3,0.5-17.3,4.1-26.5,7.3c-19.3,6.7-36.9,17.3-53.8,11.6c-2.5-0.9-14-11.8-19.2-15.5c-3.1-2.2-6.1-4.3-9.7-6.8
		c-10.2-7.2-13.2-2.2,0.4-34c3.6-8.3,6.6-15.8,10-23.9C93.4,266.9,97.5,255.4,100.9,249.6L100.9,249.6z M346.5,58
		c7,2.4,24.1,12.2,28.3,17.4c3.5,4.4,2.5,4.8,1.2,11.2l-6.9,54.2c-9.6,0.4-6.8-0.8-12.8-4.8c-10-6.7-44.2-32-55.2-40.9l-21.2-17
		c1.6-1.5-0.5-0.7,3-1.6l31.3-7.1C330.4,65.5,333,64.4,346.5,58L346.5,58z M65.8,69c7.2-4,11-1,23.1-9.7c3.2-2.3,10.7-2.1,15.2-1.5
		c4.7,0.6,15.5,9.7,20.5,12.7c2.9,1.8,15.8,11.6,17.9,15l6.4,10.3c8.8,0.4,7.2-0.1,18.3,8l106,70c22.8,15.8,49.4,32,72.3,48
		l65.4,42.8c-1.9,4.1-4.1,18-5.3,23.6c-5.7,25.7-12.8,36.6-24.3,61.3c-16.6,0.7-29.6,0.5-45.8,0.3c-5.2-0.1-3.9,1-6.8-1.8
		c-9.5-9.2-26.7-29.3-36.3-38.6c-3.3-3.2-6.3-6.2-9.6-9.7c-26.5-28.2-14-19.7-19.1-26.7l-53.3-50.4c-12.2-11.9-23.3-24.7-35.9-38.1
		c-3.2-3.4-4.9-6.7-8.3-9.8l-0.9-0.8c-0.9-0.9-0.6-0.5-1.4-1.5l-15.5-17.6c-2.7-2.5-2.5-2.4-4.5-4.7L130,135.7
		c-3.1-3.2-5.4-6.5-8.4-10l-13.3-14.1c-2-2-3.4-2.6-5.4-4.6c-6.3-6.6-11.7-12.9-18-19.5C79.7,82,67.3,71.9,65.8,69L65.8,69z
		 M129.7-9.8L20.3-7.5c-5.9,21.8,0,10.8,0,33.5v41.2c-0.9,11.9-4,17.9-4,33.8c0,5.4-1.2,17.6,1.4,21.8c4.6,7.4,4.4,13.7,6.4,24.4
		c1.7,9.5,3.6,8.5-0.7,15.7l-2,18.2l9.3,9.1l0.1,16c-5.6,5.1,0.7,1.5-11.1,10l1.1,48.3l11.6,8.4L30,314.1
		c-12.2,8.8-9.6,19.4-9.2,30.3l1.5,41l-2.7,21c27.4,6.9,21.4,4.8,52.7,4.8c27.7,0,24.1,0.3,51.4-3l0.7,4.7c4.2-0.3,8.6-0.5,12.8-0.9
		c11.6-1.1,7-2.5,11-3.9c2.9-1,34.1,6.2,39.1,7.3c2.8-3.1,1.4-1.9,5.3-4.4c2.1,4.5,11.1,14.7,14.8,19.1l11.3-10.6l19.8,7.7l5.8-4.9
		c2.3,2.7,3.6,6,7.7,6.5c5.9,0.8,6.8-8.9,19.8-9.2l75-2.5c1-0.9,1.5-1.5,2.6-2.5l3.8-3.1c4.9,3,7,5.8,13.8,5.4
		c20.7-1.4,9.9,5,36.6,3.6c4.6-0.2,3.5-1.4,7.5-2.8l8.7-1.3c-1.9-5.1-3.1-4.3-6.8-8.1l47.5,9.6c-0.6-55.9-0.5-124.2,0.2-181.7
		l-12.8,1c0.5-3.7,6-2.3,6.5-9.8c0.6-9.5,0.5-41.9-0.9-48.8c-0.7-3.5-9.7-13.9-12.1-17.1c2.9-7.8,3.2-7.3,8.5-13.6
		c-0.4-4.2-1.4-5.3-3.2-10.1l13.9-4.6c0.2-8,1.1-40.2,0.5-50.3L455,27.8l4.3-13.7L459.5,0c-12-6.9-10.5-7.7-18.8-7.6
		c-7.5,0.1-17.6-0.3-24.8-2c-9.2-2.1-6.7-3.6-16.9,6.8l-4.6-10C380-13.9,333.7-18,322.7-18c-14.1,0-12,1.1-16.8,17l-20.2,2.1
		L283-7.6l-18.3-0.2l1.9-2.1c3.6-3.4,2.3-2,5.1-8.1h-73.6c-2.4,4.5-6.9,7.9-12.1,9.7c-7.3,2.4-3.7-1.5-8.3,2.7
		c-3.5,3.1-4.1,2.9-9.5,2.8c-7.3-0.1-14.7-0.4-22-0.7c-3.3-0.1-7,0.2-10.2-0.6C131-5.3,132.4-6.5,129.7-9.8L129.7-9.8z"/>
</g>
</svg>
