<?xml version="1.0" encoding="UTF-8" standalone="no"?>
<svg
   xmlns:svg="http://www.w3.org/2000/svg"
   xmlns="http://www.w3.org/2000/svg"
   xmlns:xlink="http://www.w3.org/1999/xlink"
   version="1.1"
   width="298.53033"
   height="247.05222"
   id="svg3331">
  <defs
     id="defs3333">
    <linearGradient
       x1="0"
       y1="0"
       x2="1"
       y2="0"
       id="linearGradient3292"
       xlink:href="#linearGradient44"
       gradientUnits="userSpaceOnUse"
       gradientTransform="matrix(0,237.55262,-237.55262,0,349.88712,412.96978)"
       spreadMethod="pad" />
    <linearGradient
       x1="0"
       y1="0"
       x2="1"
       y2="0"
       id="linearGradient44"
       gradientUnits="userSpaceOnUse"
       gradientTransform="matrix(0,-190.0421,-190.0421,0,196.51025,323.05804)"
       spreadMethod="pad">
      <stop
         id="stop46"
         style="stop-color:#fabb1a;stop-opacity:1"
         offset="0" />
      <stop
         id="stop48"
         style="stop-color:#f68324;stop-opacity:1"
         offset="1" />
    </linearGradient>
    <linearGradient
       x1="0"
       y1="0"
       x2="1"
       y2="0"
       id="linearGradient3287"
       xlink:href="#linearGradient64"
       gradientUnits="userSpaceOnUse"
       gradientTransform="matrix(0,237.55262,-237.55262,0,423.38307,412.96978)"
       spreadMethod="pad" />
    <linearGradient
       x1="0"
       y1="0"
       x2="1"
       y2="0"
       id="linearGradient64"
       gradientUnits="userSpaceOnUse"
       gradientTransform="matrix(0,-190.0421,-190.0421,0,255.30701,323.05804)"
       spreadMethod="pad">
      <stop
         id="stop66"
         style="stop-color:#fabb1a;stop-opacity:1"
         offset="0" />
      <stop
         id="stop68"
         style="stop-color:#f68324;stop-opacity:1"
         offset="1" />
    </linearGradient>
    <linearGradient
       x1="0"
       y1="0"
       x2="1"
       y2="0"
       id="linearGradient3282"
       xlink:href="#linearGradient84"
       gradientUnits="userSpaceOnUse"
       gradientTransform="matrix(0,237.55262,-237.55262,0,346.69516,412.96978)"
       spreadMethod="pad" />
    <linearGradient
       x1="0"
       y1="0"
       x2="1"
       y2="0"
       id="linearGradient84"
       gradientUnits="userSpaceOnUse"
       gradientTransform="matrix(0,-190.0421,-190.0421,0,193.95668,323.05804)"
       spreadMethod="pad">
      <stop
         id="stop86"
         style="stop-color:#fabb1a;stop-opacity:1"
         offset="0" />
      <stop
         id="stop88"
         style="stop-color:#f68324;stop-opacity:1"
         offset="1" />
    </linearGradient>
    <linearGradient
       x1="0"
       y1="0"
       x2="1"
       y2="0"
       id="linearGradient3297"
       xlink:href="#linearGradient24"
       gradientUnits="userSpaceOnUse"
       gradientTransform="matrix(0,-190.0421,-190.0421,0,137.5731,323.05804)"
       spreadMethod="pad" />
    <linearGradient
       x1="0"
       y1="0"
       x2="1"
       y2="0"
       id="linearGradient24"
       gradientUnits="userSpaceOnUse"
       gradientTransform="matrix(0,-190.0421,-190.0421,0,137.5731,323.05804)"
       spreadMethod="pad">
      <stop
         id="stop26"
         style="stop-color:#fabb1a;stop-opacity:1"
         offset="0" />
      <stop
         id="stop28"
         style="stop-color:#f68324;stop-opacity:1"
         offset="1" />
    </linearGradient>
    <linearGradient
       x1="0"
       y1="0"
       x2="1"
       y2="0"
       id="linearGradient3329"
       xlink:href="#linearGradient24"
       gradientUnits="userSpaceOnUse"
       gradientTransform="matrix(0,237.55262,-237.55262,0,276.21569,412.96978)"
       spreadMethod="pad" />
  </defs>
  <g
     transform="translate(-200.73483,-408.83608)"
     id="layer1">
    <path
       d="m 259.64057,451.75358 c -57.225,16.55125 -53.86875,49.5775 -53.86875,49.5775 l 0,0 c 22.56125,9.22 33.1475,-3.32625 30.93875,-4.43125 l 0,0 c -2.2025,-1.095 -13.26,-4.40875 -1.105,-11.0475 l 0,0 c 12.16125,-6.625 76.85249,-12.1525 80.16624,4.415 l 0,0 c 4.49,15.6025 -7.12125,46.6 -20.32999,51.75 l 0,0 c -16.0825,6.26625 -20.3875,2.40625 -44.86875,6.82625 l 0,0 c -43.98875,7.945 -32.0525,26.53 -32.0525,26.53 l 0,0 c 5.3825,8.23375 22.07625,2.60125 26.52875,1.10125 l 0,0 c 3.3525,-1.13 36.46625,-11.0525 36.46625,-11.0525 l 0,0 c -4.4275,29.83875 -27.625,20.99625 -37.57875,26.52125 l 0,0 c -9.94,5.51875 -13.2625,51.9325 -13.2625,51.9325 l 0,0 c 33.1175,18.04 104.08749,-98.88375 113.83499,-145.87125 l 0,0 c 9.1925,-44.29875 -13.555,-47.35875 -13.555,-47.35875 l 0,0 c -9.24875,-0.9275 -18.78,-1.265 -27.74249,-1.265 l 0,0 c -23.78,0 -43.57125,2.3725 -43.57125,2.3725"
       id="path30"
       style="fill:url(#linearGradient3329);stroke:none" />
    <path
       d="m 346.02431,414.26108 c 0,0 -7.87,1.9925 -8.83375,9.57625 l 0,0 c -0.425,3.32625 -0.40125,15.53625 11.7325,17.04625 l 0,0 c 4.99125,0.6375 10.87875,-2.7875 12.6775,-8.76875 l 0,0 c 1.26125,-4.16125 2.28125,-8.825 -1.90125,-14.2475 l 0,0 c -2.55875,-3.31125 -6.5975,-4.03125 -9.62375,-4.03125 l 0,0 c -2.325,0 -4.05125,0.425 -4.05125,0.425"
       id="path50"
       style="fill:url(#linearGradient3292);stroke:none" />
    <path
       d="m 365.79181,450.50983 c -16.81625,2.55625 -12.89375,30.15 -12.89375,30.15 l 0,0 c 9.8575,80.3125 58.075,131.7725 84.86125,155.30125 l 0,0 c 17.98875,15.79625 21.85125,11.8825 21.85125,11.8825 l 0,0 c 22.7175,-31.09875 -2.55,-65.4175 -10.335,-56.655 l 0,0 c -6.2625,7.07125 -10.32125,4.84125 -10.32125,4.84125 l 0,0 c 0,0 -4.59625,-1.2625 -19.965,-22.1075 l 0,0 c -12.53,-16.985 -24.36875,-40.9475 -32.39,-66.2275 l 0,0 c -8.335,-26.2825 11.67625,-26.7025 11.67625,-26.7025 l 0,0 c 12.24125,-1.505 41.45375,1.095 57.2025,6.5675 l 0,0 c 13.42875,4.67 0.6875,6.91125 0.6875,6.91125 l 0,0 c 0,0 -1.4275,0.37 1.45625,2.19125 l 0,0 c 2.6875,1.6925 12.625,3.7625 17.93125,3.6375 l 0,0 c 16.5375,-0.39 24.49875,-7.94125 13.92625,-22.07 l 0,0 c -8.44125,-11.28 -25.4075,-19.09375 -48.8925,-25.705 l 0,0 c -2.5775,-0.72625 -27.9275,-3.41625 -50.98875,-3.4175 l 0,0 c -8.71375,0 -17.09625,0.38375 -23.80625,1.4025"
       id="path70"
       style="fill:url(#linearGradient3287);stroke:none" />
    <path
       d="m 338.90306,545.93358 c 0,0 -6.63875,87.5275 -1.26,98.64625 l 0,0 c 6.43375,13.28875 16.5725,1.455 16.5725,1.455 l 0,0 c 0,0 6.39125,-85.97 2.22375,-97.60375 l 0,0 c -1.88375,-5.2475 -4.8575,-6.8775 -7.825,-6.8775 l 0,0 c -4.865,0 -9.71125,4.38 -9.71125,4.38"
       id="path90"
       style="fill:url(#linearGradient3282);stroke:none" />
  </g>
</svg>
